<?xml version="1.0" standalone="no"?>
<!DOCTYPE svg PUBLIC "-//W3C//DTD SVG 20010904//EN"
 "http://www.w3.org/TR/2001/REC-SVG-20010904/DTD/svg10.dtd">
<svg version="1.0" xmlns="http://www.w3.org/2000/svg"
 width="512.000000pt" height="512.000000pt" viewBox="0 0 512.000000 512.000000"
 preserveAspectRatio="xMidYMid meet">
<metadata>
Created by potrace 1.11, written by Peter Selinger 2001-2013
</metadata>
<g transform="translate(0.000000,512.000000) scale(0.100000,-0.100000)"
fill="#000000" stroke="none">
<path d="M1796 4283 c-3 -21 -6 -94 -6 -163 l0 -125 133 -1 c72 -1 154 -6 182
-12 27 -6 51 -10 52 -9 3 3 32 321 30 324 -10 10 -156 23 -258 23 l-126 0 -7
-37z"/>
<path d="M1339 4201 c-392 -174 -686 -510 -804 -916 -30 -104 -55 -249 -55
-320 l0 -50 -62 -40 c-173 -111 -319 -314 -384 -532 -32 -108 -43 -302 -24
-419 58 -364 318 -656 686 -771 l89 -28 1775 0 1775 0 88 28 c135 42 330 147
325 174 -2 7 -51 61 -110 121 l-107 108 -88 -43 c-153 -76 -49 -72 -1876 -73
-1147 0 -1649 3 -1700 11 -354 55 -595 386 -534 733 42 240 216 438 442 506
l41 12 -9 86 c-11 105 3 262 33 377 85 322 314 593 618 732 43 20 78 36 80 38
1 1 -18 64 -43 141 -25 76 -45 145 -45 152 0 19 -18 15 -111 -27z"/>
<path d="M2447 4053 c-26 -82 -47 -151 -47 -155 0 -3 29 -23 65 -43 36 -20 95
-59 131 -87 36 -27 69 -46 73 -42 5 5 40 71 79 146 l71 137 -37 29 c-66 52
-256 162 -280 162 -5 0 -30 -66 -55 -147z"/>
<path d="M2928 3693 c-52 -65 -97 -123 -101 -130 -5 -7 15 -51 48 -104 30 -51
69 -129 86 -175 l32 -83 31 24 c50 38 175 93 251 111 39 9 75 17 80 19 7 2 4
56 -10 161 l-21 159 -39 -3 c-21 -2 -61 -10 -89 -17 -29 -8 -52 -10 -54 -4 -4
11 -112 159 -117 159 -1 0 -45 -53 -97 -117z"/>
<path d="M3685 3618 c-19 -107 -43 -283 -39 -290 3 -4 11 -8 17 -8 19 0 158
-69 194 -96 l32 -24 43 62 c77 114 139 210 136 213 -77 56 -206 124 -296 154
-79 27 -80 27 -87 -11z"/>
<path d="M4200 3134 c-52 -47 -105 -96 -118 -108 l-23 -22 30 -65 c29 -62 61
-166 61 -199 0 -12 23 -19 103 -32 56 -9 105 -13 108 -10 4 4 25 67 48 139 23
73 44 139 47 147 3 8 -4 16 -18 20 -17 5 -36 34 -73 108 -27 56 -55 103 -60
105 -6 2 -53 -35 -105 -83z"/>
<path d="M4617 2739 l-78 -140 69 -69 c48 -48 83 -95 112 -151 24 -46 47 -79
53 -76 7 3 77 17 157 32 80 16 146 29 148 31 7 5 -54 144 -92 208 -69 116
-198 253 -281 299 -6 3 -45 -58 -88 -134z"/>
<path d="M4796 2027 c-2 -7 -9 -41 -15 -76 -6 -36 -26 -97 -45 -138 -19 -40
-32 -74 -28 -77 4 -2 67 -40 139 -85 l133 -81 40 80 c47 93 88 229 92 302 l3
52 -125 12 c-69 7 -140 15 -158 18 -21 3 -34 1 -36 -7z"/>
</g>
</svg>
